<?xml version="1.0" encoding="utf-8"?>
<!-- Generator: Adobe Illustrator 19.2.0, SVG Export Plug-In . SVG Version: 6.00 Build 0)  -->
<svg version="1.1" id="Layer_1" xmlns="http://www.w3.org/2000/svg" xmlns:xlink="http://www.w3.org/1999/xlink" x="0px" y="0px"
	 viewBox="0 0 32 32" style="enable-background:new 0 0 32 32;" xml:space="preserve">
<style type="text/css">
	.st0{fill:#3DB249;}
</style>
<path class="st0" d="M30,6.2c-1.1-0.8-6.6-3.9-14-3.9C8.6,2.3,3.1,5.5,2,6.2c-0.2,1.3-0.1,6.8,3.9,13.9c4.2,7.5,9,9.3,10.1,9.6
	c0,0,0,0,0,0h0c1.2-0.3,5.9-2.1,10.1-9.6C30.1,13.1,30.1,7.5,30,6.2z M16,26.7C16,26.7,16,26.7,16,26.7C16,26.7,16,26.7,16,26.7
	c-1.6-0.7-3.4-2.2-4.8-3.9c1.4-1.3,3.1-1.8,4.8-1.8c0,0,0,0,0,0c0,0,0,0,0,0c1.7,0,3.4,0.5,4.8,1.8C19.4,24.4,17.6,26,16,26.7z
	 M22.7,20.2c-2-1.7-4.4-2.4-6.7-2.4c0,0,0,0,0,0c0,0,0,0,0,0c-2.3,0-4.7,0.7-6.7,2.4C8.8,19.4,7.7,17.4,7,16c2.7-2,5.7-2.9,8.9-2.9
	c0,0,0,0,0,0c0,0,0,0,0,0c3.2,0,6.2,0.9,8.9,2.9C24.3,17.4,23.2,19.4,22.7,20.2z M26.1,13.1C22.8,11,19.5,10,16,10c0,0,0,0,0,0
	c0,0,0,0,0,0c-3.5,0-6.8,0.9-10.1,3.1C5.5,11.8,5,9.9,5,8.2c3.4-1.8,7.3-2.7,11-2.7c0,0,0,0,0,0c0,0,0,0,0,0c3.7,0,7.7,0.9,11,2.7
	C27,9.9,26.5,11.8,26.1,13.1z"/>
</svg>
